<?xml version="1.0" encoding="UTF-8" standalone="no"?>
<!-- Created with Inkscape (http://www.inkscape.org/) -->

<svg
   width="544"
   height="480"
   viewBox="0 0 143.93333 127"
   version="1.1"
   id="svg5"
   inkscape:version="1.1.2 (0a00cf5339, 2022-02-04)"
   sodipodi:docname="logo.svg"
   xmlns:inkscape="http://www.inkscape.org/namespaces/inkscape"
   xmlns:sodipodi="http://sodipodi.sourceforge.net/DTD/sodipodi-0.dtd"
   xmlns="http://www.w3.org/2000/svg"
   xmlns:svg="http://www.w3.org/2000/svg">
  <sodipodi:namedview
     id="namedview7"
     pagecolor="#ffffff"
     bordercolor="#666666"
     borderopacity="1.0"
     inkscape:pageshadow="2"
     inkscape:pageopacity="0.0"
     inkscape:pagecheckerboard="0"
     inkscape:document-units="mm"
     showgrid="false"
     units="px"
     inkscape:zoom="1.4039843"
     inkscape:cx="134.61689"
     inkscape:cy="265.31636"
     inkscape:window-width="1920"
     inkscape:window-height="1052"
     inkscape:window-x="0"
     inkscape:window-y="0"
     inkscape:window-maximized="1"
     inkscape:current-layer="layer1" />
  <defs
     id="defs2" />
  <g
     inkscape:label="Layer 1"
     inkscape:groupmode="layer"
     id="layer1">
    <g
       id="g151">
      <g
         style="fill:none"
         id="g62"
         transform="matrix(1.2500011,0,0,1.2500011,5.2916669,38.512916)">
        <path
           d="m 27.4166,25.9298 c -1.295,1.1256 -2.9061,2.5268 -5.8402,2.5268 h -1.7517 c -2.1204,0 -4.0488,-0.7546 -5.4292,-2.1259 -1.3477,-1.3393 -2.0912,-3.1712 -2.0912,-5.1605 v -2.3523 c 0,-1.9893 0.7423,-3.8224 2.0912,-5.1605 1.3804,-1.3714 3.3088,-2.126 5.4292,-2.126 h 1.7517 c 2.9341,0 4.5452,1.4012 5.8402,2.5268 1.343,1.1681 2.5033,2.1766 5.5932,2.1766 0.48,0 0.9507,-0.0379 1.4085,-0.1103 -0.0035,-0.0092 -0.007,-0.0172 -0.0105,-0.0264 C 34.224,15.6513 34.0073,15.2125 33.758,14.7887 L 31.6914,11.2776 C 29.7958,8.05585 26.2914,6.07227 22.5002,6.07227 H 18.367 c -3.7912,0 -7.2956,1.98472 -9.19123,5.20533 l -2.06655,3.5111 c -1.89563,3.2218 -1.89563,7.19 0,10.4106 l 2.06655,3.5112 c 1.89563,3.2217 5.40003,5.2053 9.19123,5.2053 h 4.1332 c 3.7912,0 7.2956,-1.9847 9.1912,-5.2053 l 2.0666,-3.5112 c 0.2493,-0.4249 0.466,-0.8626 0.6498,-1.3093 0.0035,-0.0092 0.007,-0.0173 0.0105,-0.0265 -0.4578,-0.0723 -0.9273,-0.1102 -1.4085,-0.1102 -3.0899,0 -4.2502,1.0084 -5.5932,2.1765 z"
           fill="#006bff"
           id="path41" />
        <path
           d="M 21.5767,13.6621 H 19.825 c -3.2268,0 -5.3484,2.2615 -5.3484,5.1559 v 2.3523 c 0,2.8944 2.1204,5.1559 5.3484,5.1559 h 1.7517 c 4.7021,0 4.3333,-4.7034 11.4334,-4.7034 0.6803,0 1.3523,0.0609 2.0068,0.1803 0.2155,-1.1956 0.2155,-2.42 0,-3.6168 -0.6545,0.1195 -1.3265,0.1803 -2.0068,0.1803 C 25.91,18.3655 26.2788,13.6621 21.5767,13.6621 Z"
           fill="#006bff"
           id="path43" />
        <path
           d="m 39.095,23.5203 c -1.213,-0.8775 -2.604,-1.4495 -4.0793,-1.7194 -0.0023,0.0115 -0.0035,0.023 -0.0058,0.0345 -0.1265,0.6891 -0.3232,1.3679 -0.5925,2.026 1.2446,0.1976 2.3921,0.657 3.3721,1.3611 -0.0035,0.0103 -0.0059,0.0207 -0.0094,0.0322 -0.5655,1.8009 -1.4179,3.4985 -2.5325,5.0433 -1.1018,1.5253 -2.4331,2.868 -3.9587,3.9901 -3.1672,2.3305 -6.9397,3.5617 -10.9113,3.5617 -2.4588,0 -4.8426,-0.472 -7.086,-1.4024 C 11.1243,35.5481 9.17718,34.2605 7.50402,32.6192 5.83086,30.9779 4.51835,29.0679 3.60156,26.9419 2.65317,24.7412 2.17194,22.4028 2.17194,19.9908 c 0,-2.412 0.48123,-4.7505 1.42962,-6.9511 0.91679,-2.126 2.2293,-4.0361 3.90246,-5.6774 1.67316,-1.6413 3.62028,-2.92884 5.78758,-3.82816 2.2434,-0.93034 4.6272,-1.4024 7.086,-1.4024 3.9716,0 7.7441,1.23127 10.9113,3.56171 1.5256,1.12214 2.8569,2.46482 3.9587,3.99011 1.1146,1.54484 1.967,3.24244 2.5325,5.04334 0.0035,0.0115 0.007,0.0218 0.0094,0.0322 -0.98,0.704 -2.1275,1.1646 -3.3721,1.361 0.2693,0.6593 0.4672,1.3392 0.5925,2.0284 0.0023,0.0115 0.0035,0.0218 0.0058,0.0333 1.4753,-0.2699 2.8651,-0.8419 4.0793,-1.7194 1.1626,-0.8442 0.9378,-1.7975 0.761,-2.3626 C 37.293,5.93464 29.542,0 20.3776,0 9.12334,0 0,8.94962 0,19.9896 c 0,11.04 9.12334,19.9897 20.3776,19.9897 9.1644,0 16.9154,-5.9347 19.4784,-14.0998 0.1768,-0.5617 0.4028,-1.515 -0.761,-2.3592 z"
           fill="#006bff"
           id="path45" />
        <path
           d="m 34.4187,16.1224 c -0.4578,0.0724 -0.9273,0.1103 -1.4085,0.1103 -3.0899,0 -4.2502,-1.0085 -5.5932,-2.1766 -1.295,-1.1256 -2.9061,-2.5268 -5.8403,-2.5268 h -1.7516 c -2.1204,0 -4.0488,0.7546 -5.4292,2.126 -1.3477,1.3392 -2.0912,3.1712 -2.0912,5.1605 v 2.3523 c 0,1.9893 0.7423,3.8224 2.0912,5.1605 1.3804,1.3713 3.3088,2.126 5.4292,2.126 h 1.7516 c 2.9342,0 4.5453,-1.4013 5.8403,-2.5269 1.343,-1.1681 2.5033,-2.1765 5.5932,-2.1765 0.48,0 0.9507,0.0379 1.4085,0.1102 0.2693,-0.6581 0.466,-1.338 0.5925,-2.026 0.0023,-0.0115 0.0035,-0.023 0.0058,-0.0345 -0.6545,-0.1194 -1.3266,-0.1803 -2.0068,-0.1803 -7.1001,0 -6.7313,4.7034 -11.4335,4.7034 h -1.7516 c -3.2268,0 -5.3485,-2.2616 -5.3485,-5.1559 v -2.3523 c 0,-2.8944 2.1205,-5.1559 5.3485,-5.1559 h 1.7516 c 4.7022,0 4.3334,4.7034 11.4335,4.7034 0.6802,0 1.3523,-0.0609 2.0068,-0.1804 -0.0023,-0.0114 -0.0035,-0.0218 -0.0058,-0.0333 -0.1253,-0.688 -0.3232,-1.3679 -0.5925,-2.0272 z"
           fill="#0ae8f0"
           id="path47" />
        <path
           d="m 34.4187,16.1224 c -0.4578,0.0724 -0.9273,0.1103 -1.4085,0.1103 -3.0899,0 -4.2502,-1.0085 -5.5932,-2.1766 -1.295,-1.1256 -2.9061,-2.5268 -5.8403,-2.5268 h -1.7516 c -2.1204,0 -4.0488,0.7546 -5.4292,2.126 -1.3477,1.3392 -2.0912,3.1712 -2.0912,5.1605 v 2.3523 c 0,1.9893 0.7423,3.8224 2.0912,5.1605 1.3804,1.3713 3.3088,2.126 5.4292,2.126 h 1.7516 c 2.9342,0 4.5453,-1.4013 5.8403,-2.5269 1.343,-1.1681 2.5033,-2.1765 5.5932,-2.1765 0.48,0 0.9507,0.0379 1.4085,0.1102 0.2693,-0.6581 0.466,-1.338 0.5925,-2.026 0.0023,-0.0115 0.0035,-0.023 0.0058,-0.0345 -0.6545,-0.1194 -1.3266,-0.1803 -2.0068,-0.1803 -7.1001,0 -6.7313,4.7034 -11.4335,4.7034 h -1.7516 c -3.2268,0 -5.3485,-2.2616 -5.3485,-5.1559 v -2.3523 c 0,-2.8944 2.1205,-5.1559 5.3485,-5.1559 h 1.7516 c 4.7022,0 4.3334,4.7034 11.4335,4.7034 0.6802,0 1.3523,-0.0609 2.0068,-0.1804 -0.0023,-0.0114 -0.0035,-0.0218 -0.0058,-0.0333 -0.1253,-0.688 -0.3232,-1.3679 -0.5925,-2.0272 z"
           fill="#0ae8f0"
           id="path49" />
      </g>
      <path
         d="m 138.61502,49.407399 a 0.81463907,0.81463907 0 0 1 0.0266,0.210464 v 11.048486 a 0.80557634,0.80557634 0 0 1 -0.40475,0.698834 l -9.2732,5.338954 v 10.582229 c 0,0.288104 -0.153,0.55383 -0.40278,0.698834 l -19.35701,11.143133 c -0.0441,0.0267 -0.0925,0.0415 -0.14081,0.0586 -0.019,0.008 -0.0343,0.019 -0.0544,0.0228 a 0.81061116,0.81061116 0 0 1 -0.41286,0 c -0.0228,-0.008 -0.0422,-0.019 -0.0636,-0.0266 -0.0442,-0.0152 -0.0906,-0.0305 -0.13282,-0.0544 l -19.352856,-11.143 a 0.80658329,0.80658329 0 0 1 -0.40483,-0.698835 V 44.14148 c 0,-0.07231 0.0114,-0.143101 0.0266,-0.211607 0.008,-0.02284 0.019,-0.04453 0.0266,-0.06736 0.0152,-0.04225 0.0305,-0.08563 0.0514,-0.124833 0.0152,-0.02664 0.0381,-0.04719 0.0552,-0.07155 0.0228,-0.03045 0.0441,-0.06546 0.0716,-0.09362 0.0228,-0.02284 0.0533,-0.04034 0.0795,-0.06051 0.0305,-0.02284 0.0552,-0.05024 0.0887,-0.06927 h 0.001 l 9.676945,-5.571568 a 0.80759025,0.80759025 0 0 1 0.805584,0 l 9.676997,5.571568 h 0.002 c 0.0304,0.01903 0.0594,0.04529 0.0887,0.06851 0.0266,0.01903 0.0552,0.03806 0.0784,0.06051 0.0266,0.03045 0.0483,0.06242 0.0723,0.09477 0.019,0.02284 0.0404,0.04529 0.0544,0.07155 0.0228,0.04034 0.0381,0.08259 0.0525,0.124833 0.008,0.02284 0.0228,0.04415 0.0266,0.06851 a 0.81463907,0.81463907 0 0 1 0.0266,0.210465 v 20.702309 l 8.06381,-4.643164 V 49.617749 c 0,-0.07041 0.0114,-0.141959 0.0266,-0.209323 0.008,-0.02284 0.019,-0.04529 0.0266,-0.06851 0.0152,-0.04225 0.0305,-0.08563 0.0525,-0.124833 0.0152,-0.02664 0.0381,-0.04719 0.0544,-0.07155 0.0228,-0.03045 0.0441,-0.06546 0.0723,-0.09363 0.0228,-0.02284 0.0525,-0.04034 0.0784,-0.06051 0.0304,-0.02284 0.0563,-0.05024 0.0887,-0.06927 h 9.9e-4 l 9.678,-5.571569 a 0.80658329,0.80658329 0 0 1 0.80555,0 l 9.677,5.571569 c 0.0343,0.01903 0.0605,0.04529 0.0906,0.06851 0.0266,0.01903 0.0544,0.03844 0.0776,0.06051 0.0266,0.03045 0.0483,0.06242 0.0723,0.09477 0.019,0.02284 0.0403,0.04529 0.0544,0.07155 0.0228,0.0392 0.0381,0.08259 0.0525,0.124832 0.008,0.02284 0.0228,0.04415 0.0266,0.06851 z m -1.58496,10.792693 v -9.187605 l -3.38646,1.94952 -4.67837,2.693645 v 9.187604 l 8.06582,-4.643164 z m -9.677,16.620054 v -9.193617 l -4.60183,2.628183 -13.14099,7.49989 v 9.280241 z M 90.256304,45.535609 V 76.820146 L 107.99708,87.033853 V 77.75563 l -9.268131,-5.24533 -0.003,-0.002 -0.004,-0.002 c -0.0304,-0.01903 -0.0575,-0.04453 -0.0868,-0.0666 -0.0266,-0.01903 -0.0544,-0.03806 -0.0765,-0.05823 l -0.002,-0.003 c -0.0266,-0.02664 -0.0441,-0.05633 -0.0666,-0.08449 -0.019,-0.02664 -0.0442,-0.05024 -0.0605,-0.0784 l -9.9e-4,-0.003 c -0.019,-0.03045 -0.0305,-0.0666 -0.0422,-0.100856 -0.0114,-0.03045 -0.0304,-0.05861 -0.0384,-0.09058 v -0.001 c -0.0114,-0.03806 -0.0114,-0.0784 -0.0152,-0.117602 -0.004,-0.03045 -0.0114,-0.06051 -0.0114,-0.09058 v -0.002 -21.630713 l -4.677358,-2.694672 -3.38642,-1.947465 z m 8.871392,-6.03581 -8.062792,4.641148 8.060772,4.641109 8.061824,-4.642137 -8.061824,-4.64012 z m 4.193034,28.964516 4.67738,-2.692654 V 45.535609 l -3.38647,1.949482 -4.678367,2.693644 v 20.23609 z m 24.83891,-23.487599 -8.06179,4.641147 8.06179,4.64111 8.0608,-4.642137 z m -0.80658,10.678936 -4.67837,-2.693645 -3.38646,-1.94952 v 9.187605 l 4.67738,2.692654 3.38745,1.95051 z m -18.55039,20.704326 11.82485,-6.750742 5.9109,-3.373335 -8.05574,-4.638141 -9.27522,5.339982 -8.45352,4.866683 z"
         fill="#ff2d20"
         fill-rule="evenodd"
         id="path108"
         style="stroke-width:1.00697" />
    </g>
    <path
       id="rect175"
       style="fill:none;stroke:#000000;stroke-width:2.00000003;stroke-linejoin:round;paint-order:markers stroke fill;stroke-miterlimit:47.1;stroke-dasharray:none;stroke-linecap:round"
       d="M 268.2207 202.20508 L 268.2207 236.2207 L 234.20508 236.2207 L 234.20508 243.7793 L 268.2207 243.7793 L 268.2207 277.79492 L 275.7793 277.79492 L 275.7793 243.7793 L 309.79492 243.7793 L 309.79492 236.2207 L 275.7793 236.2207 L 275.7793 202.20508 L 268.2207 202.20508 z "
       transform="scale(0.26458333)" />
  </g>
</svg>
